<svg width="11" height="11" viewBox="0 0 11 11" fill="none" xmlns="http://www.w3.org/2000/svg">
<path fill-rule="evenodd" clip-rule="evenodd" d="M1.13636 9.65246C0.843464 9.94536 0.843464 10.4202 1.13636 10.7131C1.42925 11.006 1.90412 11.006 2.19702 10.7131L5.92474 6.9854L9.65249 10.7131C9.94538 11.006 10.4203 11.006 10.7131 10.7131C11.006 10.4202 11.006 9.94537 10.7131 9.65248L6.9854 5.92474L10.7131 2.19699C11.006 1.9041 11.006 1.42923 10.7131 1.13633C10.4203 0.843441 9.94538 0.843441 9.65249 1.13633L5.92474 4.86408L2.19702 1.13635C1.90412 0.843457 1.42925 0.843457 1.13636 1.13635C0.843464 1.42924 0.843464 1.90412 1.13636 2.19701L4.86408 5.92474L1.13636 9.65246Z" fill="#202020"/>
</svg>
