<svg width="8" height="8" viewBox="0 0 8 8" fill="none" xmlns="http://www.w3.org/2000/svg">
<path d="M7.3032 4.94501L5.66653 4.00001L7.3032 3.05501C7.46253 2.96301 7.5172 2.75901 7.4252 2.59968L6.9252 1.73368C6.8332 1.57434 6.62953 1.51968 6.46986 1.61168L4.8332 2.55668V0.666677C4.8332 0.482677 4.68386 0.333344 4.49986 0.333344H3.49986C3.31586 0.333344 3.16653 0.482677 3.16653 0.666677V2.55668L1.52986 1.61168C1.3702 1.51968 1.16653 1.57434 1.07453 1.73368L0.574532 2.59968C0.482532 2.75901 0.536865 2.96301 0.696532 3.05501L2.3332 4.00001L0.696532 4.94501C0.537198 5.03701 0.482532 5.24101 0.574532 5.40034L1.07453 6.26634C1.16653 6.42568 1.37053 6.48034 1.52986 6.38834L3.16653 5.44334V7.33334C3.16653 7.51734 3.31586 7.66668 3.49986 7.66668H4.49986C4.68386 7.66668 4.8332 7.51734 4.8332 7.33334V5.44334L6.46986 6.38834C6.6292 6.48034 6.8332 6.42568 6.9252 6.26634L7.4252 5.40034C7.5172 5.24101 7.46286 5.03701 7.3032 4.94501Z" fill="#BA1200"/>
</svg>
